<mxfile host="65bd71144e" pages="1">
    <diagram id="4aA8682Oxr7YlsX3xrEW" name="Page-1">
        <mxGraphModel dx="808" dy="497" grid="1" gridSize="10" guides="1" tooltips="1" connect="1" arrows="1" fold="1" page="1" pageScale="1" pageWidth="827" pageHeight="1169" math="0" shadow="0">
            <root>
                <mxCell id="0"/>
                <mxCell id="1" parent="0"/>
                <mxCell id="asYjwT--wiLLLTKxJUm1-8" value="" style="rounded=0;whiteSpace=wrap;html=1;strokeColor=#767171;fillColor=none;gradientColor=none;strokeWidth=2;" parent="1" vertex="1">
                    <mxGeometry x="40" y="40" width="440" height="360" as="geometry"/>
                </mxCell>
                <mxCell id="asYjwT--wiLLLTKxJUm1-4" value="" style="outlineConnect=0;fontColor=#232F3E;gradientColor=none;gradientDirection=north;fillColor=#767171;strokeColor=#ffffff;dashed=0;verticalLabelPosition=bottom;verticalAlign=top;align=center;html=1;fontSize=12;fontStyle=0;aspect=fixed;shape=mxgraph.aws4.resourceIcon;resIcon=mxgraph.aws4.vpc;" parent="1" vertex="1">
                    <mxGeometry x="40" y="40" width="40" height="40" as="geometry"/>
                </mxCell>
                <mxCell id="asYjwT--wiLLLTKxJUm1-9" value="" style="outlineConnect=0;fontColor=#232F3E;gradientColor=none;fillColor=#767171;strokeColor=none;dashed=0;verticalLabelPosition=bottom;verticalAlign=top;align=center;html=1;fontSize=12;fontStyle=0;aspect=fixed;pointerEvents=1;shape=mxgraph.aws4.route_table;" parent="1" vertex="1">
                    <mxGeometry x="155" y="213.5" width="41.05" height="40" as="geometry"/>
                </mxCell>
                <mxCell id="asYjwT--wiLLLTKxJUm1-11" value="" style="outlineConnect=0;dashed=0;verticalLabelPosition=bottom;verticalAlign=top;align=center;html=1;shape=mxgraph.aws3.router;fillColor=#767171;gradientColor=none;strokeColor=#767171;" parent="1" vertex="1">
                    <mxGeometry x="75" y="213.5" width="40" height="40" as="geometry"/>
                </mxCell>
                <mxCell id="asYjwT--wiLLLTKxJUm1-12" value="" style="endArrow=none;html=1;entryX=1;entryY=0.5;entryDx=0;entryDy=0;entryPerimeter=0;strokeColor=#767171;strokeWidth=2;" parent="1" source="asYjwT--wiLLLTKxJUm1-9" target="asYjwT--wiLLLTKxJUm1-11" edge="1">
                    <mxGeometry width="50" height="50" relative="1" as="geometry">
                        <mxPoint x="95" y="463.5" as="sourcePoint"/>
                        <mxPoint x="145" y="413.5" as="targetPoint"/>
                    </mxGeometry>
                </mxCell>
                <mxCell id="asYjwT--wiLLLTKxJUm1-13" value="vpc" style="text;html=1;resizable=0;autosize=1;align=center;verticalAlign=middle;points=[];fillColor=none;strokeColor=none;rounded=0;fontColor=#767171;fontStyle=1" parent="1" vertex="1">
                    <mxGeometry x="85" y="50" width="30" height="20" as="geometry"/>
                </mxCell>
                <mxCell id="asYjwT--wiLLLTKxJUm1-14" value="router" style="text;html=1;resizable=0;autosize=1;align=center;verticalAlign=middle;points=[];fillColor=none;strokeColor=none;rounded=0;fontColor=#767171;fontStyle=1" parent="1" vertex="1">
                    <mxGeometry x="70" y="266.5" width="50" height="20" as="geometry"/>
                </mxCell>
                <mxCell id="asYjwT--wiLLLTKxJUm1-15" value="route table" style="text;html=1;resizable=0;autosize=1;align=center;verticalAlign=middle;points=[];fillColor=none;strokeColor=none;rounded=0;fontColor=#767171;fontStyle=1" parent="1" vertex="1">
                    <mxGeometry x="140.52" y="182.5" width="70" height="20" as="geometry"/>
                </mxCell>
                <mxCell id="asYjwT--wiLLLTKxJUm1-16" value="" style="endArrow=none;html=1;strokeColor=#767171;fontColor=#767171;fontSize=27;spacing=7;strokeWidth=2;" parent="1" edge="1">
                    <mxGeometry width="50" height="50" relative="1" as="geometry">
                        <mxPoint x="521" y="79.5" as="sourcePoint"/>
                        <mxPoint x="561" y="79.5" as="targetPoint"/>
                    </mxGeometry>
                </mxCell>
                <mxCell id="asYjwT--wiLLLTKxJUm1-17" value="" style="endArrow=none;html=1;strokeColor=#23A8D4;fontColor=#767171;fontSize=27;spacing=7;strokeWidth=2;" parent="1" edge="1">
                    <mxGeometry width="50" height="50" relative="1" as="geometry">
                        <mxPoint x="521" y="120" as="sourcePoint"/>
                        <mxPoint x="561" y="120" as="targetPoint"/>
                    </mxGeometry>
                </mxCell>
                <mxCell id="asYjwT--wiLLLTKxJUm1-18" value="&lt;font style=&quot;font-size: 12px&quot;&gt;Preexisting resources&lt;/font&gt;" style="text;html=1;resizable=0;autosize=1;align=center;verticalAlign=middle;points=[];fillColor=none;strokeColor=none;rounded=0;fontSize=12;fontColor=#767171;fontStyle=1" parent="1" vertex="1">
                    <mxGeometry x="570" y="65" width="130" height="20" as="geometry"/>
                </mxCell>
                <mxCell id="asYjwT--wiLLLTKxJUm1-19" value="&lt;font style=&quot;font-size: 12px&quot;&gt;Module resources&lt;/font&gt;" style="text;html=1;resizable=0;autosize=1;align=center;verticalAlign=middle;points=[];fillColor=none;strokeColor=none;rounded=0;fontSize=12;fontColor=#23A8D4;fontStyle=1" parent="1" vertex="1">
                    <mxGeometry x="568" y="106" width="110" height="20" as="geometry"/>
                </mxCell>
                <mxCell id="asYjwT--wiLLLTKxJUm1-47" value="&lt;font&gt;&lt;b&gt;&lt;i&gt;subnet&lt;/i&gt;&lt;/b&gt;&lt;/font&gt;" style="outlineConnect=0;gradientColor=none;html=1;whiteSpace=wrap;fontSize=12;fontStyle=0;shape=mxgraph.aws4.group;grIcon=mxgraph.aws4.group_subnet;strokeColor=#767171;fillColor=none;verticalAlign=top;align=left;spacingLeft=30;fontColor=#767171;dashed=0;strokeWidth=2;labelBackgroundColor=none;" parent="1" vertex="1">
                    <mxGeometry x="320" y="60" width="140" height="220" as="geometry"/>
                </mxCell>
                <mxCell id="asYjwT--wiLLLTKxJUm1-105" value="" style="rounded=1;arcSize=10;strokeColor=#23A8D4;fillColor=none;gradientColor=none;strokeWidth=2;shadow=0;labelBackgroundColor=none;fontSize=17;fontColor=#FFCD2D;" parent="1" vertex="1">
                    <mxGeometry x="330" y="220" width="120" height="50" as="geometry"/>
                </mxCell>
                <mxCell id="asYjwT--wiLLLTKxJUm1-106" value="" style="outlineConnect=0;fontColor=#232F3E;gradientColor=none;fillColor=#23A8D4;strokeColor=none;dashed=0;verticalLabelPosition=bottom;verticalAlign=top;align=center;html=1;fontSize=12;fontStyle=0;aspect=fixed;pointerEvents=1;shape=mxgraph.aws4.elastic_network_interface;shadow=0;labelBackgroundColor=none;" parent="1" vertex="1">
                    <mxGeometry x="410" y="224.5" width="30" height="30" as="geometry"/>
                </mxCell>
                <mxCell id="asYjwT--wiLLLTKxJUm1-107" value="" style="pointerEvents=1;shadow=0;dashed=0;html=1;strokeColor=none;labelPosition=center;verticalLabelPosition=bottom;verticalAlign=top;outlineConnect=0;align=center;shape=mxgraph.office.security.lock_protected;fillColor=#23A8D4;labelBackgroundColor=none;fontSize=17;fontColor=#FFCD2D;aspect=fixed;" parent="1" vertex="1">
                    <mxGeometry x="349" y="201" width="20" height="27.37" as="geometry"/>
                </mxCell>
                <mxCell id="asYjwT--wiLLLTKxJUm1-108" value="&lt;font style=&quot;font-size: 12px&quot;&gt;interface&lt;br&gt;&lt;/font&gt;" style="text;html=1;resizable=0;autosize=1;align=center;verticalAlign=middle;points=[];fillColor=none;strokeColor=none;rounded=0;fontSize=12;fontColor=#23A8D4;fontStyle=1" parent="1" vertex="1">
                    <mxGeometry x="390" y="250.5" width="60" height="20" as="geometry"/>
                </mxCell>
                <mxCell id="asYjwT--wiLLLTKxJUm1-109" value="&lt;font style=&quot;font-size: 12px&quot;&gt;security &lt;br&gt;group&lt;br&gt;&lt;/font&gt;" style="text;html=1;resizable=0;autosize=1;align=center;verticalAlign=middle;points=[];fillColor=none;strokeColor=none;rounded=0;fontSize=12;fontColor=#23A8D4;fontStyle=1" parent="1" vertex="1">
                    <mxGeometry x="330" y="225.5" width="60" height="30" as="geometry"/>
                </mxCell>
                <mxCell id="asYjwT--wiLLLTKxJUm1-115" value="" style="endArrow=none;html=1;strokeColor=#23A8D4;fontColor=#767171;fontSize=27;spacing=7;strokeWidth=2;edgeStyle=orthogonalEdgeStyle;" parent="1" source="asYjwT--wiLLLTKxJUm1-106" target="fDonSM83OGkTalOCIAJF-69" edge="1">
                    <mxGeometry width="50" height="50" relative="1" as="geometry">
                        <mxPoint x="450" y="364" as="sourcePoint"/>
                        <mxPoint x="510" y="239.5" as="targetPoint"/>
                        <Array as="points"/>
                    </mxGeometry>
                </mxCell>
                <mxCell id="fDonSM83OGkTalOCIAJF-13" value="" style="outlineConnect=0;fontColor=#232F3E;gradientColor=none;fillColor=#767171;strokeColor=none;dashed=0;verticalLabelPosition=bottom;verticalAlign=top;align=center;html=1;fontSize=12;fontStyle=0;aspect=fixed;pointerEvents=1;shape=mxgraph.aws4.network_access_control_list;" parent="1" vertex="1">
                    <mxGeometry x="240" y="211.5" width="40" height="40" as="geometry"/>
                </mxCell>
                <mxCell id="fDonSM83OGkTalOCIAJF-15" style="rounded=0;orthogonalLoop=1;jettySize=auto;html=1;strokeColor=#767171;strokeWidth=2;fontSize=12;fontColor=#767171;endArrow=none;endFill=0;" parent="1" source="fDonSM83OGkTalOCIAJF-13" target="asYjwT--wiLLLTKxJUm1-47" edge="1">
                    <mxGeometry relative="1" as="geometry">
                        <mxPoint x="290.5" y="130" as="sourcePoint"/>
                        <mxPoint x="330" y="130" as="targetPoint"/>
                    </mxGeometry>
                </mxCell>
                <mxCell id="fDonSM83OGkTalOCIAJF-18" style="rounded=0;orthogonalLoop=1;jettySize=auto;html=1;strokeColor=#767171;strokeWidth=2;fontSize=12;fontColor=#767171;endArrow=none;endFill=0;labelBackgroundColor=none;" parent="1" source="asYjwT--wiLLLTKxJUm1-9" edge="1">
                    <mxGeometry relative="1" as="geometry">
                        <mxPoint x="205.94133935585228" y="244" as="sourcePoint"/>
                        <mxPoint x="240" y="232.73675643681565" as="targetPoint"/>
                    </mxGeometry>
                </mxCell>
                <mxCell id="fDonSM83OGkTalOCIAJF-20" value="" style="group" parent="1" vertex="1" connectable="0">
                    <mxGeometry x="238" y="263.5" width="45" height="45" as="geometry"/>
                </mxCell>
                <mxCell id="fDonSM83OGkTalOCIAJF-21" value="" style="group" parent="fDonSM83OGkTalOCIAJF-20" vertex="1" connectable="0">
                    <mxGeometry width="45" height="45" as="geometry"/>
                </mxCell>
                <mxCell id="fDonSM83OGkTalOCIAJF-22" value="" style="ellipse;whiteSpace=wrap;html=1;aspect=fixed;strokeColor=none;strokeWidth=2;fillColor=#FFFFFF;gradientColor=none;fontSize=12;fontColor=#FFCD2D;" parent="fDonSM83OGkTalOCIAJF-21" vertex="1">
                    <mxGeometry x="2" y="3" width="20" height="20" as="geometry"/>
                </mxCell>
                <mxCell id="fDonSM83OGkTalOCIAJF-23" value="" style="outlineConnect=0;fontColor=#767171;gradientColor=none;strokeColor=#767171;fillColor=none;dashed=0;verticalLabelPosition=bottom;verticalAlign=top;align=center;html=1;fontSize=12;fontStyle=1;aspect=fixed;shape=mxgraph.aws4.resourceIcon;resIcon=mxgraph.aws4.filtering_rule;strokeWidth=1;" parent="fDonSM83OGkTalOCIAJF-21" vertex="1">
                    <mxGeometry width="25" height="25" as="geometry"/>
                </mxCell>
                <mxCell id="fDonSM83OGkTalOCIAJF-24" value="" style="ellipse;whiteSpace=wrap;html=1;aspect=fixed;strokeColor=none;strokeWidth=2;fillColor=#FFFFFF;gradientColor=none;fontSize=12;fontColor=#FFCD2D;" parent="fDonSM83OGkTalOCIAJF-21" vertex="1">
                    <mxGeometry x="12" y="13" width="20" height="20" as="geometry"/>
                </mxCell>
                <mxCell id="fDonSM83OGkTalOCIAJF-25" value="" style="outlineConnect=0;fontColor=#767171;gradientColor=none;strokeColor=#767171;fillColor=none;dashed=0;verticalLabelPosition=bottom;verticalAlign=top;align=center;html=1;fontSize=12;fontStyle=1;aspect=fixed;shape=mxgraph.aws4.resourceIcon;resIcon=mxgraph.aws4.filtering_rule;strokeWidth=1;" parent="fDonSM83OGkTalOCIAJF-21" vertex="1">
                    <mxGeometry x="10" y="10" width="25" height="25" as="geometry"/>
                </mxCell>
                <mxCell id="fDonSM83OGkTalOCIAJF-26" value="" style="ellipse;whiteSpace=wrap;html=1;aspect=fixed;strokeColor=none;strokeWidth=2;fillColor=#FFFFFF;gradientColor=none;fontSize=12;fontColor=#FFCD2D;" parent="fDonSM83OGkTalOCIAJF-21" vertex="1">
                    <mxGeometry x="22" y="23" width="20" height="20" as="geometry"/>
                </mxCell>
                <mxCell id="fDonSM83OGkTalOCIAJF-27" value="" style="outlineConnect=0;fontColor=#767171;gradientColor=none;strokeColor=#767171;fillColor=none;dashed=0;verticalLabelPosition=bottom;verticalAlign=top;align=center;html=1;fontSize=12;fontStyle=1;aspect=fixed;shape=mxgraph.aws4.resourceIcon;resIcon=mxgraph.aws4.filtering_rule;strokeWidth=1;" parent="fDonSM83OGkTalOCIAJF-21" vertex="1">
                    <mxGeometry x="20" y="20" width="25" height="25" as="geometry"/>
                </mxCell>
                <mxCell id="fDonSM83OGkTalOCIAJF-37" style="rounded=0;orthogonalLoop=1;jettySize=auto;html=1;strokeColor=#767171;strokeWidth=2;fontSize=12;fontColor=#767171;endArrow=none;endFill=0;labelBackgroundColor=none;" parent="1" source="fDonSM83OGkTalOCIAJF-25" target="fDonSM83OGkTalOCIAJF-13" edge="1">
                    <mxGeometry relative="1" as="geometry">
                        <mxPoint x="270.125" y="167.5" as="sourcePoint"/>
                        <mxPoint x="270.29999999999995" y="150" as="targetPoint"/>
                    </mxGeometry>
                </mxCell>
                <mxCell id="fDonSM83OGkTalOCIAJF-67" value="" style="endArrow=none;html=1;strokeColor=#23A8D4;fontColor=#767171;fontSize=27;spacing=7;strokeWidth=2;exitX=0.75;exitY=0;exitDx=0;exitDy=0;" parent="1" source="asYjwT--wiLLLTKxJUm1-105" edge="1">
                    <mxGeometry width="50" height="50" relative="1" as="geometry">
                        <mxPoint x="531" y="130" as="sourcePoint"/>
                        <mxPoint x="419.5" y="207.5" as="targetPoint"/>
                    </mxGeometry>
                </mxCell>
                <mxCell id="fDonSM83OGkTalOCIAJF-69" value="" style="outlineConnect=0;fontColor=#232F3E;gradientColor=none;gradientDirection=north;fillColor=#767171;strokeColor=#ffffff;dashed=0;verticalLabelPosition=bottom;verticalAlign=top;align=center;html=1;fontSize=12;fontStyle=0;aspect=fixed;shape=mxgraph.aws4.resourceIcon;resIcon=mxgraph.aws4.cloudtrail;shadow=0;labelBackgroundColor=none;" parent="1" vertex="1">
                    <mxGeometry x="560" y="219.5" width="40" height="40" as="geometry"/>
                </mxCell>
                <mxCell id="2" value="" style="points=[[0,0,0],[0.25,0,0],[0.5,0,0],[0.75,0,0],[1,0,0],[0,1,0],[0.25,1,0],[0.5,1,0],[0.75,1,0],[1,1,0],[0,0.25,0],[0,0.5,0],[0,0.75,0],[1,0.25,0],[1,0.5,0],[1,0.75,0]];outlineConnect=0;fontColor=#232F3E;gradientDirection=north;strokeColor=#ffffff;dashed=0;verticalLabelPosition=bottom;verticalAlign=top;align=center;html=1;fontSize=12;fontStyle=0;aspect=fixed;shape=mxgraph.aws4.resourceIcon;resIcon=mxgraph.aws4.s3;fillColor=#767171;" parent="1" vertex="1">
                    <mxGeometry x="560" y="330" width="40" height="40" as="geometry"/>
                </mxCell>
                <mxCell id="4" value="" style="rounded=1;arcSize=10;strokeColor=#23A8D4;fillColor=none;gradientColor=none;strokeWidth=2;shadow=0;labelBackgroundColor=none;fontSize=17;fontColor=#23A8D4;" parent="1" vertex="1">
                    <mxGeometry x="330" y="132" width="120" height="50" as="geometry"/>
                </mxCell>
                <mxCell id="5" value="" style="outlineConnect=0;fontColor=#232F3E;gradientColor=none;fillColor=#23A8D4;strokeColor=none;dashed=0;verticalLabelPosition=bottom;verticalAlign=top;align=center;html=1;fontSize=12;fontStyle=0;aspect=fixed;pointerEvents=1;shape=mxgraph.aws4.elastic_network_interface;shadow=0;labelBackgroundColor=none;" parent="1" vertex="1">
                    <mxGeometry x="410" y="136.5" width="30" height="30" as="geometry"/>
                </mxCell>
                <mxCell id="6" value="" style="pointerEvents=1;shadow=0;dashed=0;html=1;strokeColor=none;labelPosition=center;verticalLabelPosition=bottom;verticalAlign=top;outlineConnect=0;align=center;shape=mxgraph.office.security.lock_protected;fillColor=#23A8D4;labelBackgroundColor=none;fontSize=17;fontColor=#FFCD2D;aspect=fixed;" parent="1" vertex="1">
                    <mxGeometry x="349" y="113" width="20" height="27.37" as="geometry"/>
                </mxCell>
                <mxCell id="7" value="&lt;font style=&quot;font-size: 12px&quot;&gt;interface&lt;br&gt;&lt;/font&gt;" style="text;html=1;resizable=0;autosize=1;align=center;verticalAlign=middle;points=[];fillColor=none;strokeColor=none;rounded=0;fontSize=12;fontColor=#23A8D4;fontStyle=1" parent="1" vertex="1">
                    <mxGeometry x="390" y="162.5" width="60" height="20" as="geometry"/>
                </mxCell>
                <mxCell id="8" value="&lt;font style=&quot;font-size: 12px&quot;&gt;security &lt;br&gt;group&lt;br&gt;&lt;/font&gt;" style="text;html=1;resizable=0;autosize=1;align=center;verticalAlign=middle;points=[];fillColor=none;strokeColor=none;rounded=0;fontSize=12;fontColor=#23A8D4;fontStyle=1" parent="1" vertex="1">
                    <mxGeometry x="330" y="137.5" width="60" height="30" as="geometry"/>
                </mxCell>
                <mxCell id="9" value="" style="endArrow=none;html=1;strokeColor=#23A8D4;fontColor=#767171;fontSize=27;spacing=7;strokeWidth=2;edgeStyle=orthogonalEdgeStyle;entryX=0;entryY=0.5;entryDx=0;entryDy=0;entryPerimeter=0;" parent="1" source="5" target="18" edge="1">
                    <mxGeometry width="50" height="50" relative="1" as="geometry">
                        <mxPoint x="450" y="276" as="sourcePoint"/>
                        <mxPoint x="510" y="151.5" as="targetPoint"/>
                        <Array as="points"/>
                    </mxGeometry>
                </mxCell>
                <mxCell id="17" value="" style="endArrow=none;html=1;strokeColor=#23A8D4;fontColor=#767171;fontSize=27;spacing=7;strokeWidth=2;exitX=0.75;exitY=0;exitDx=0;exitDy=0;" parent="1" source="4" edge="1">
                    <mxGeometry width="50" height="50" relative="1" as="geometry">
                        <mxPoint x="531" y="42" as="sourcePoint"/>
                        <mxPoint x="419.5" y="119.5" as="targetPoint"/>
                    </mxGeometry>
                </mxCell>
                <mxCell id="18" value="" style="points=[[0,0,0],[0.25,0,0],[0.5,0,0],[0.75,0,0],[1,0,0],[0,1,0],[0.25,1,0],[0.5,1,0],[0.75,1,0],[1,1,0],[0,0.25,0],[0,0.5,0],[0,0.75,0],[1,0.25,0],[1,0.5,0],[1,0.75,0]];points=[[0,0,0],[0.25,0,0],[0.5,0,0],[0.75,0,0],[1,0,0],[0,1,0],[0.25,1,0],[0.5,1,0],[0.75,1,0],[1,1,0],[0,0.25,0],[0,0.5,0],[0,0.75,0],[1,0.25,0],[1,0.5,0],[1,0.75,0]];outlineConnect=0;fontColor=#232F3E;gradientDirection=north;strokeColor=#ffffff;dashed=0;verticalLabelPosition=bottom;verticalAlign=top;align=center;html=1;fontSize=12;fontStyle=0;aspect=fixed;shape=mxgraph.aws4.resourceIcon;resIcon=mxgraph.aws4.cloudwatch_2;fillColor=#767171;" parent="1" vertex="1">
                    <mxGeometry x="560" y="131.5" width="40" height="40" as="geometry"/>
                </mxCell>
                <mxCell id="21" value="" style="endArrow=none;html=1;strokeColor=#23A8D4;fontColor=#767171;fontSize=27;spacing=7;strokeWidth=2;edgeStyle=orthogonalEdgeStyle;entryX=0;entryY=0.5;entryDx=0;entryDy=0;entryPerimeter=0;" parent="1" target="2" edge="1">
                    <mxGeometry width="50" height="50" relative="1" as="geometry">
                        <mxPoint x="500" y="350" as="sourcePoint"/>
                        <mxPoint x="520" y="249.5" as="targetPoint"/>
                        <Array as="points">
                            <mxPoint x="500" y="350"/>
                            <mxPoint x="500" y="350"/>
                        </Array>
                    </mxGeometry>
                </mxCell>
                <mxCell id="22" value="" style="endArrow=none;html=1;strokeColor=#23A8D4;fontColor=#767171;fontSize=27;spacing=7;strokeWidth=2;edgeStyle=orthogonalEdgeStyle;" parent="1" source="asYjwT--wiLLLTKxJUm1-9" edge="1">
                    <mxGeometry width="50" height="50" relative="1" as="geometry">
                        <mxPoint x="449.9996591141514" y="249.5" as="sourcePoint"/>
                        <mxPoint x="460" y="350" as="targetPoint"/>
                        <Array as="points">
                            <mxPoint x="176" y="350"/>
                        </Array>
                    </mxGeometry>
                </mxCell>
                <mxCell id="23" value="" style="outlineConnect=0;dashed=0;verticalLabelPosition=bottom;verticalAlign=top;align=center;html=1;shape=mxgraph.aws3.endpoints;fillColor=#23A8D4;gradientColor=none;fontColor=#23A8D4;strokeColor=#23A8D4;aspect=fixed;" vertex="1" parent="1">
                    <mxGeometry x="460" y="330" width="38.33" height="40" as="geometry"/>
                </mxCell>
                <mxCell id="34" value="" style="group" vertex="1" connectable="0" parent="1">
                    <mxGeometry x="405" y="96.5" width="35" height="35" as="geometry"/>
                </mxCell>
                <mxCell id="25" value="" style="group" vertex="1" connectable="0" parent="34">
                    <mxGeometry width="25" height="25" as="geometry"/>
                </mxCell>
                <mxCell id="26" value="" style="ellipse;whiteSpace=wrap;html=1;aspect=fixed;strokeColor=none;strokeWidth=2;fillColor=#FFFFFF;gradientColor=none;fontSize=12;fontColor=#FFCD2D;" vertex="1" parent="25">
                    <mxGeometry x="3" y="3" width="20" height="20" as="geometry"/>
                </mxCell>
                <mxCell id="27" value="" style="outlineConnect=0;fontColor=#FFCD2D;gradientColor=none;strokeColor=#23A8D4;fillColor=none;dashed=0;verticalLabelPosition=bottom;verticalAlign=top;align=center;html=1;fontSize=12;fontStyle=1;aspect=fixed;shape=mxgraph.aws4.resourceIcon;resIcon=mxgraph.aws4.filtering_rule;strokeWidth=1;" vertex="1" parent="25">
                    <mxGeometry width="25" height="25" as="geometry"/>
                </mxCell>
                <mxCell id="28" value="" style="group" vertex="1" connectable="0" parent="34">
                    <mxGeometry x="10" y="10" width="25" height="25" as="geometry"/>
                </mxCell>
                <mxCell id="29" value="" style="ellipse;whiteSpace=wrap;html=1;aspect=fixed;strokeColor=none;strokeWidth=2;fillColor=#FFFFFF;gradientColor=none;fontSize=12;fontColor=#FFCD2D;" vertex="1" parent="28">
                    <mxGeometry x="3" y="3" width="20" height="20" as="geometry"/>
                </mxCell>
                <mxCell id="30" value="" style="outlineConnect=0;fontColor=#FFCD2D;gradientColor=none;strokeColor=#23A8D4;fillColor=none;dashed=0;verticalLabelPosition=bottom;verticalAlign=top;align=center;html=1;fontSize=12;fontStyle=1;aspect=fixed;shape=mxgraph.aws4.resourceIcon;resIcon=mxgraph.aws4.filtering_rule;strokeWidth=1;" vertex="1" parent="28">
                    <mxGeometry width="25" height="25" as="geometry"/>
                </mxCell>
                <mxCell id="35" value="" style="group" vertex="1" connectable="0" parent="1">
                    <mxGeometry x="406" y="185" width="35" height="35" as="geometry"/>
                </mxCell>
                <mxCell id="36" value="" style="group" vertex="1" connectable="0" parent="35">
                    <mxGeometry width="25" height="25" as="geometry"/>
                </mxCell>
                <mxCell id="37" value="" style="ellipse;whiteSpace=wrap;html=1;aspect=fixed;strokeColor=none;strokeWidth=2;fillColor=#FFFFFF;gradientColor=none;fontSize=12;fontColor=#FFCD2D;" vertex="1" parent="36">
                    <mxGeometry x="3" y="3" width="20" height="20" as="geometry"/>
                </mxCell>
                <mxCell id="38" value="" style="outlineConnect=0;fontColor=#FFCD2D;gradientColor=none;strokeColor=#23A8D4;fillColor=none;dashed=0;verticalLabelPosition=bottom;verticalAlign=top;align=center;html=1;fontSize=12;fontStyle=1;aspect=fixed;shape=mxgraph.aws4.resourceIcon;resIcon=mxgraph.aws4.filtering_rule;strokeWidth=1;" vertex="1" parent="36">
                    <mxGeometry width="25" height="25" as="geometry"/>
                </mxCell>
                <mxCell id="39" value="" style="group" vertex="1" connectable="0" parent="35">
                    <mxGeometry x="10" y="10" width="25" height="25" as="geometry"/>
                </mxCell>
                <mxCell id="40" value="" style="ellipse;whiteSpace=wrap;html=1;aspect=fixed;strokeColor=none;strokeWidth=2;fillColor=#FFFFFF;gradientColor=none;fontSize=12;fontColor=#FFCD2D;" vertex="1" parent="39">
                    <mxGeometry x="3" y="3" width="20" height="20" as="geometry"/>
                </mxCell>
                <mxCell id="41" value="" style="outlineConnect=0;fontColor=#FFCD2D;gradientColor=none;strokeColor=#23A8D4;fillColor=none;dashed=0;verticalLabelPosition=bottom;verticalAlign=top;align=center;html=1;fontSize=12;fontStyle=1;aspect=fixed;shape=mxgraph.aws4.resourceIcon;resIcon=mxgraph.aws4.filtering_rule;strokeWidth=1;" vertex="1" parent="39">
                    <mxGeometry width="25" height="25" as="geometry"/>
                </mxCell>
            </root>
        </mxGraphModel>
    </diagram>
</mxfile>